# xmcd CD database file
#
# Track frame offsets:
#	182
#	15195
#	30820
#	39562
#	55485
#	69895
#	81182
#	96725
#	110110
#	122817
#	134477
#	143780
#	157777
#	172277
#	178580
#
# Disc length: 2584 seconds
#
# Revision: 0
# Processed by: cddbd v1.5.1PL2 Copyright (c) Steve Scherf et al.
# Submitted via: CDex 1.51
#
DISCID=ca0a160f
DTITLE=Zarama - Zaramaren Erdian
DYEAR=1991
DGENRE=Euskal Herriko Punk
TTITLE0=Bidea Eratzen
TTITLE1=Nahiko
TTITLE2=Goazen Borrokara
TTITLE3=Soinu Krudelak
TTITLE4=Gasteizko Gaua
TTITLE5=Latsegi Da
TTITLE6=Norbait
TTITLE7=Nahaste Borraste
TTITLE8=Edan Ase Arte
TTITLE9=Ezkerralde
TTITLE10=Plof! Mugimendua
TTITLE11=Zaramaren Erdian
TTITLE12=Bildur Naiz
TTITLE13=Kamaleoien Dantza
TTITLE14=Itxoiten
EXTD=YEAR: 1991
EXTT0=
EXTT1=
EXTT2=
EXTT3=
EXTT4=
EXTT5=
EXTT6=
EXTT7=
EXTT8=
EXTT9=
EXTT10=
EXTT11=
EXTT12=
EXTT13=
EXTT14=
PLAYORDER=
